<?xml version="1.0" encoding="UTF-8"?>
<svg id="Camada_2" data-name="Camada 2" xmlns="http://www.w3.org/2000/svg" viewBox="0 0 569.98 208.15">
  <defs>
    <style>
      .cls-1 {
        fill: #3b00f2;
      }

      .cls-2 {
        fill: #37373d;
      }
    </style>
  </defs>
  <g id="Símbolo_acento" data-name="Símbolo+acento">
    <g>
      <path class="cls-1" d="m80.42,2.59h-12.04c-.97,0-1.84.59-2.2,1.49l-21.45,54.07c-.51,1.29-1.69,2.09-3.08,2.09h0c-1.39,0-2.57-.81-3.08-2.1L17.24,4.08c-.36-.91-1.22-1.5-2.2-1.5H2.37c-.81,0-1.53.39-1.97,1.06-.44.68-.52,1.49-.2,2.23l32.16,75c.37.87,1.23,1.43,2.17,1.43h13.88c.95,0,1.8-.56,2.17-1.44L82.59,5.88c.32-.74.24-1.56-.2-2.23s-1.16-1.06-1.97-1.06Z"/>
      <path class="cls-1" d="m211.09,4.02c-.37-.87-1.23-1.43-2.17-1.43h-13.88c-.95,0-1.8.56-2.17,1.43l-32.01,75c-.32.74-.24,1.56.2,2.23.45.67,1.16,1.06,1.97,1.06h12.04c.97,0,1.84-.59,2.2-1.49l21.45-54.08c.51-1.29,1.69-2.09,3.08-2.09h0c1.39,0,2.57.81,3.08,2.1l21.32,54.06c.36.91,1.22,1.5,2.2,1.5h12.68c.81,0,1.53-.39,1.97-1.06.44-.67.51-1.5.2-2.23L211.09,4.02Z"/>
      <path class="cls-1" d="m159.44,20.46c-3.66-6.36-8.82-11.41-15.34-15.02-6.53-3.61-14.15-5.44-22.65-5.44s-15.96,1.83-22.48,5.44c-6.52,3.61-11.71,8.66-15.42,15.02-3.71,6.36-5.59,13.73-5.59,21.91s1.88,15.71,5.59,22.07c3.71,6.36,8.9,11.42,15.42,15.02,6.53,3.61,14.09,5.44,22.48,5.44s16.12-1.83,22.65-5.44c6.52-3.6,11.68-8.66,15.34-15.02,3.66-6.36,5.51-13.73,5.51-21.91s-1.85-15.71-5.51-22.07Zm-15.49,36.6c-2.13,4.21-5.16,7.56-8.98,9.97-3.83,2.41-8.32,3.63-13.35,3.63s-9.54-1.22-13.43-3.63c-3.88-2.4-6.93-5.76-9.06-9.97-2.13-4.2-3.2-9.14-3.2-14.68s1.08-10.35,3.2-14.6c2.13-4.26,5.18-7.62,9.07-9.97,3.88-2.35,8.4-3.54,13.42-3.54s9.51,1.22,13.35,3.63c3.83,2.41,6.85,5.76,8.98,9.97,2.13,4.2,3.2,9.09,3.2,14.52s-1.08,10.49-3.2,14.68Z"/>
    </g>
    <path class="cls-1" d="m361.34,80.16l5.07-9.21c1.29-2.59-.91-5.55-3.76-5.08l-51.64,9.26c-1.07.18-2,.83-2.52,1.78h0c-1.31,2.37.4,5.27,3.11,5.27l46.56-.05c1.35,0,2.58-.76,3.18-1.97Z"/>
  </g>
  <g id="Tipografia">
    <g>
      <path class="cls-2" d="m77.21,92.15c-4.6,0-9.11.87-13.4,2.58-4.31,1.72-8.07,4.59-11.19,8.51-.43.54-.84,1.11-1.24,1.71-.62.94-2.07.49-2.07-.63v-8.49c0-.63-.51-1.13-1.13-1.13h-13.33c-.63,0-1.13.51-1.13,1.13v77.72c0,.63.51,1.13,1.13,1.13h13.49c.63,0,1.13-.51,1.13-1.13v-35.83c0-7.44,1.16-13.59,3.46-18.28,2.28-4.67,5.33-8.15,9.06-10.32,3.73-2.18,7.73-3.28,11.88-3.28,5.78,0,10.44,1.91,13.84,5.66,3.41,3.77,5.14,9.54,5.14,17.14v44.92c0,.63.51,1.13,1.13,1.13h13.49c.63,0,1.13-.51,1.13-1.13v-46.51c0-11.22-2.83-19.94-8.41-25.9-5.59-5.97-13.32-8.99-22.97-8.99Z"/>
      <path class="cls-2" d="m177.52,97.55c-6.05-3.59-13.08-5.4-20.88-5.4s-15.33,1.84-21.75,5.48c-6.42,3.64-11.52,8.71-15.16,15.08-3.64,6.36-5.48,13.76-5.48,21.99s1.93,15.63,5.72,22c3.8,6.37,9.14,11.44,15.88,15.07,6.73,3.63,14.53,5.47,23.17,5.47,7.58,0,14.48-1.46,20.52-4.35,6.04-2.89,11.21-6.95,15.38-12.08l.26-.32-9.91-10.26-.33.44c-6.57,8.76-15.13,13.2-25.44,13.2-5.63,0-10.71-1.21-15.08-3.61-4.37-2.39-7.82-5.84-10.25-10.26-1.17-2.11-2.06-4.42-2.68-6.89-.38-1.53.76-3.01,2.33-3.01h60.87c1.33,0,2.41-1.08,2.41-2.41v-3.48c0-8.22-1.76-15.56-5.24-21.82-3.48-6.26-8.31-11.25-14.36-14.84Zm-34.5,11.56c3.94-2.39,8.53-3.6,13.62-3.6,4.77,0,9.06,1.18,12.74,3.51,3.68,2.33,6.6,5.65,8.68,9.85.95,1.93,1.69,4.03,2.21,6.3.35,1.52-.77,2.99-2.34,2.99h-44c-1.58,0-2.72-1.5-2.33-3.03.54-2.13,1.27-4.11,2.19-5.94,2.18-4.31,5.29-7.7,9.23-10.09h0Z"/>
      <path class="cls-2" d="m270.03,103.69c0,1.07-1.35,1.52-2.02.68,0,0-.01-.02-.02-.02-3.22-4.02-7.22-7.1-11.89-9.14-4.66-2.04-9.79-3.07-15.25-3.07-7.49,0-14.35,1.82-20.4,5.4-6.05,3.59-10.93,8.58-14.51,14.83-3.58,6.26-5.4,13.55-5.4,21.67s1.79,15.25,5.32,21.51c3.53,6.26,8.45,11.2,14.6,14.68,6.15,3.48,13.17,5.24,20.87,5.24,6.96,0,13.17-1.49,18.48-4.44,3.11-1.73,5.83-3.84,8.11-6.32.69-.75,1.95-.24,1.95.78v1.38c0,5.52-1.16,10.4-3.45,14.51-2.29,4.1-5.52,7.37-9.62,9.7-4.11,2.34-8.99,3.53-14.51,3.53-5.85,0-10.95-1.06-15.17-3.14-4.22-2.09-7.84-4.99-10.76-8.64l-.34-.42-9.9,10.59.28.32c4.07,4.6,9.27,8.26,15.47,10.88,6.19,2.62,13.17,3.94,20.74,3.94,8.33,0,15.8-1.79,22.22-5.32,6.42-3.53,11.54-8.47,15.24-14.67,3.69-6.21,5.57-13.48,5.57-21.6v-70.73c0-.63-.51-1.13-1.13-1.13h-13.33c-.63,0-1.13.51-1.13,1.13v7.86Zm-3.93,15.92c2.5,4.48,3.77,10.14,3.77,16.83v4.53c-.51,4.19-.97,6.8-2.98,9.57-.01.02-.03.03-.04.05-2.55,3.48-5.84,6.25-9.79,8.22-3.95,1.98-8.39,2.98-13.18,2.98-5.42,0-10.19-1.19-14.19-3.52-4-2.34-7.16-5.63-9.39-9.78-2.24-4.16-3.37-9.01-3.37-14.44s1.11-10.15,3.29-14.37c2.18-4.21,5.32-7.6,9.32-10.1,3.99-2.49,8.6-3.75,13.7-3.75,4.67,0,9.07,1.19,13.07,3.52,4,2.34,7.29,5.79,9.79,10.26Z"/>
      <path class="cls-2" d="m356.8,97.71h0c-6.36-3.69-13.82-5.56-22.15-5.56s-15.81,1.87-22.23,5.56c-6.42,3.69-11.52,8.76-15.15,15.07-3.64,6.31-5.48,13.68-5.48,21.91s1.84,15.63,5.48,21.99c3.64,6.37,8.74,11.44,15.16,15.08,6.42,3.64,13.9,5.48,22.22,5.48s15.78-1.84,22.15-5.48c6.36-3.63,11.46-8.71,15.16-15.07,3.69-6.36,5.56-13.76,5.56-21.99s-1.87-15.6-5.56-21.91c-3.69-6.31-8.79-11.38-15.15-15.07Zm4.16,36.98c0,5.64-1.11,10.69-3.3,15.01h0c-2.18,4.31-5.29,7.73-9.23,10.17-3.94,2.44-8.58,3.67-13.78,3.67s-9.84-1.24-13.78-3.67c-3.95-2.44-7.08-5.86-9.31-10.18-2.24-4.32-3.37-9.36-3.37-15.01s1.14-10.69,3.37-15c2.24-4.31,5.37-7.74,9.31-10.18,3.95-2.44,8.58-3.68,13.78-3.68s9.83,1.24,13.78,3.67c3.94,2.44,7.05,5.86,9.23,10.17,2.19,4.32,3.3,9.37,3.3,15.01Z"/>
      <path class="cls-2" d="m410.55,109.51c4-2.44,8.66-3.68,13.86-3.68s9.52,1.1,13.15,3.28c3.64,2.18,6.7,5.14,9.09,8.78l.31.47,10.76-10.25-.27-.34c-3.85-4.81-8.64-8.66-14.26-11.44-5.62-2.78-12.04-4.19-19.09-4.19-8.12,0-15.52,1.87-21.99,5.56-6.47,3.69-11.6,8.79-15.24,15.16-3.64,6.36-5.48,13.71-5.48,21.83s1.84,15.63,5.48,21.99c3.64,6.37,8.71,11.44,15.08,15.08,6.37,3.64,13.71,5.48,21.83,5.48,7.15,0,13.66-1.41,19.33-4.19,5.67-2.78,10.49-6.63,14.34-11.44l.27-.33-10.76-10.25-.31.47c-2.39,3.64-5.43,6.6-9.02,8.78-3.57,2.17-8.02,3.28-13.23,3.28s-9.87-1.24-13.86-3.68c-4-2.44-7.16-5.86-9.39-10.18-2.24-4.32-3.38-9.37-3.38-15.01s1.14-10.68,3.38-15c2.23-4.31,5.39-7.74,9.39-10.18Z"/>
      <rect class="cls-2" x="462.73" y="94.7" width="15.76" height="79.99" rx="1.13" ry="1.13"/>
      <path class="cls-2" d="m564.42,112.78c-3.69-6.31-8.79-11.38-15.15-15.07-6.36-3.69-13.82-5.56-22.15-5.56s-15.81,1.87-22.23,5.56c-6.42,3.69-11.52,8.76-15.15,15.07-3.64,6.31-5.48,13.68-5.48,21.91s1.84,15.63,5.48,21.99c3.64,6.37,8.74,11.44,15.16,15.08,6.42,3.64,13.9,5.48,22.22,5.48s15.78-1.84,22.15-5.48c6.36-3.63,11.46-8.71,15.16-15.07,3.69-6.36,5.56-13.76,5.56-21.99s-1.87-15.6-5.56-21.91Zm-10.99,21.91c0,5.64-1.11,10.69-3.3,15.01-2.18,4.31-5.29,7.74-9.23,10.17-3.94,2.44-8.58,3.67-13.78,3.67s-9.84-1.24-13.78-3.67c-3.95-2.44-7.08-5.86-9.31-10.18-2.24-4.32-3.37-9.37-3.37-15.01s1.14-10.68,3.37-15c2.23-4.31,5.37-7.74,9.31-10.18,3.95-2.44,8.58-3.68,13.78-3.68s9.83,1.24,13.78,3.67c3.94,2.44,7.05,5.86,9.23,10.17,2.19,4.32,3.3,9.37,3.3,15.01Z"/>
      <circle class="cls-2" cx="470.61" cy="73.91" r="10.88"/>
    </g>
  </g>
</svg>