<?xml version="1.0" encoding="UTF-8"?>
<svg id="Camada_2" data-name="Camada 2" xmlns="http://www.w3.org/2000/svg" viewBox="0 0 177.45 62.01">
  <defs>
    <style>
      .cls-1 {
        fill: #3b00f2;
      }
    </style>
  </defs>
  <g id="Símbolo_acento" data-name="Símbolo+acento">
    <g>
      <path class="cls-1" d="m58.74,1.89h-8.8c-.71,0-1.34.43-1.6,1.09l-15.67,39.5c-.37.94-1.24,1.53-2.25,1.53h0c-1.01,0-1.88-.59-2.25-1.53L12.6,2.98c-.26-.66-.89-1.09-1.61-1.09H1.73c-.59,0-1.12.28-1.44.78-.32.49-.38,1.09-.15,1.63l23.49,54.78c.27.64.9,1.05,1.59,1.05h10.14c.69,0,1.32-.41,1.59-1.05L60.33,4.29c.23-.54.18-1.14-.15-1.63s-.85-.77-1.44-.77Z"/>
      <path class="cls-1" d="m153.82,2.93c-.27-.64-.9-1.05-1.59-1.05h-10.14c-.69,0-1.32.41-1.59,1.05l-23.38,54.78c-.23.54-.18,1.14.15,1.63.33.49.85.77,1.44.77h8.8c.71,0,1.34-.43,1.6-1.09l15.67-39.5c.37-.94,1.24-1.53,2.25-1.53h0c1.01,0,1.88.59,2.25,1.53l15.57,39.49c.26.66.89,1.09,1.61,1.09h9.26c.59,0,1.12-.28,1.44-.78.32-.49.37-1.1.15-1.63L153.82,2.93Z"/>
      <path class="cls-1" d="m116.46,14.94c-2.67-4.64-6.44-8.34-11.2-10.97-4.77-2.64-10.34-3.97-16.54-3.97s-11.65,1.34-16.42,3.97c-4.76,2.63-8.55,6.33-11.26,10.97-2.71,4.65-4.09,10.03-4.09,16s1.37,11.48,4.09,16.12c2.71,4.65,6.5,8.34,11.26,10.97,4.77,2.64,10.29,3.97,16.42,3.97s11.77-1.34,16.54-3.97c4.76-2.63,8.53-6.32,11.2-10.97,2.67-4.65,4.03-10.03,4.03-16.01s-1.35-11.48-4.03-16.12Zm-11.32,26.73c-1.56,3.08-3.77,5.53-6.56,7.28-2.8,1.76-6.08,2.65-9.75,2.65s-6.97-.89-9.81-2.65c-2.83-1.76-5.06-4.21-6.62-7.28-1.55-3.07-2.34-6.67-2.34-10.73s.79-7.56,2.34-10.67c1.56-3.11,3.79-5.57,6.63-7.29,2.84-1.72,6.14-2.59,9.8-2.59s6.95.89,9.75,2.65c2.8,1.76,5,4.21,6.56,7.28,1.55,3.07,2.34,6.64,2.34,10.61s-.79,7.66-2.34,10.73Z"/>
    </g>
  </g>
</svg>